<?xml version="1.0" encoding="UTF-8" standalone="no"?>
<!-- Created with Inkscape (http://www.inkscape.org/) -->

<svg
   xmlns:dc="http://purl.org/dc/elements/1.1/"
   xmlns:cc="http://creativecommons.org/ns#"
   xmlns:rdf="http://www.w3.org/1999/02/22-rdf-syntax-ns#"
   xmlns:svg="http://www.w3.org/2000/svg"
   xmlns="http://www.w3.org/2000/svg"
   xmlns:sodipodi="http://sodipodi.sourceforge.net/DTD/sodipodi-0.dtd"
   xmlns:inkscape="http://www.inkscape.org/namespaces/inkscape"
   width="207.18385"
   height="250.00006"
   viewBox="0 0 54.817394 66.145851"
   version="1.1"
   id="svg8"
   inkscape:version="0.92.4 5da689c313, 2019-01-14"
   sodipodi:docname="asdf-movie-guy.svg">
  <defs
     id="defs2" />
  <sodipodi:namedview
     id="base"
     pagecolor="#ffffff"
     bordercolor="#666666"
     borderopacity="1.0"
     inkscape:pageopacity="0.0"
     inkscape:pageshadow="2"
     inkscape:zoom="1.6415373"
     inkscape:cx="22.661721"
     inkscape:cy="141.62805"
     inkscape:document-units="mm"
     inkscape:current-layer="layer1"
     showgrid="false"
     fit-margin-top="0"
     fit-margin-left="0"
     fit-margin-right="0"
     fit-margin-bottom="0"
     inkscape:window-width="1920"
     inkscape:window-height="1056"
     inkscape:window-x="0"
     inkscape:window-y="0"
     inkscape:window-maximized="1"
     units="px" />
  <metadata
     id="metadata5">
    <rdf:RDF>
      <cc:Work
         rdf:about="">
        <dc:format>image/svg+xml</dc:format>
        <dc:type
           rdf:resource="http://purl.org/dc/dcmitype/StillImage" />
        <dc:title></dc:title>
      </cc:Work>
    </rdf:RDF>
  </metadata>
  <g
     inkscape:label="Layer 1"
     inkscape:groupmode="layer"
     id="layer1"
     transform="translate(-99.907603,-122.78828)">
    <path
       style="fill:#000000;stroke-width:0.99999994"
       d="m 99.941482,188.42781 c 0.05975,-0.27849 0.376638,-1.77213 0.704218,-3.31925 2.14014,-10.10795 6.85141,-21.30572 12.86389,-30.57498 l 1.22164,-1.88339 -0.5972,-2.05469 c -2.57789,-8.86902 0.11084,-17.76438 7.06061,-23.35918 2.20938,-1.77865 4.16339,-2.84049 6.77583,-3.68213 1.61911,-0.52163 2.42232,-0.63305 5.2316,-0.72575 2.86794,-0.0946 3.60754,-0.0428 5.44437,0.38167 5.48572,1.26764 10.41916,5.02987 13.47578,10.2766 3.2628,5.60064 3.48372,14.17121 0.51712,20.06205 -2.6307,5.22392 -7.51968,9.38052 -12.90911,10.97532 -0.80711,0.23894 -1.44944,0.5653 -1.50998,0.76743 -0.0579,0.1935 -0.51068,2.1239 -1.00608,4.28982 -1.1259,4.92239 -1.68589,8.00958 -2.59198,14.28957 l -0.71432,4.9507 -1.05592,0.0686 c -0.99875,0.0648 -1.05594,0.0377 -1.05594,-0.50303 0,-2.18399 2.35545,-15.82255 3.61267,-20.91828 0.2408,-0.97621 0.43709,-1.88759 0.43605,-2.02529 -0.001,-0.16559 -0.78216,-0.25967 -2.3066,-0.27756 -4.57724,-0.054 -8.39247,-1.34919 -11.86858,-4.02911 -1.48952,-1.14838 -3.63261,-3.37915 -4.819,-5.01618 -0.47684,-0.65796 -0.9374,-1.11365 -1.02341,-1.01265 -0.3086,0.3624 -2.53889,3.96133 -3.29793,5.32173 -4.59722,8.23956 -7.87009,16.66055 -9.63525,24.79127 -0.32243,1.48521 -0.63677,2.92822 -0.69851,3.20671 -0.0981,0.44259 -0.25383,0.50632 -1.23743,0.50632 -1.049012,0 -1.117819,-0.0343 -1.016538,-0.50632 z m 38.593348,-25.96036 c 3.24002,-0.7948 6.67613,-2.86084 9.01603,-5.42108 1.12074,-1.22626 2.92285,-3.79248 2.92285,-4.16216 0,-0.0991 -0.58228,-0.18153 -1.29395,-0.18312 -0.71164,-0.002 -3.06606,-0.15469 -5.232,-0.34026 -2.16592,-0.18552 -4.60648,-0.27525 -5.42345,-0.19934 -2.00331,0.18631 -3.82315,-0.21104 -4.69435,-1.0248 -1.27545,-1.19141 -0.77803,-3.20413 1.13095,-4.57636 0.46481,-0.33409 0.98586,-0.60745 1.15793,-0.60745 0.17196,0 0.41308,-0.1002 0.53558,-0.22273 0.30045,-0.30045 3.73432,-1.31668 5.25784,-1.55602 2.9974,-0.47089 6.39266,0.65785 8.20269,2.72699 0.55927,0.63933 1.0791,1.44583 1.15516,1.79225 0.36448,1.65939 0.92776,0.35674 1.1554,-2.67202 l 0.13848,-1.84432 -1.32651,-0.0686 c -1.27902,-0.0659 -1.32511,-0.0898 -1.28726,-0.66441 0.0391,-0.59321 0.0332,-0.59541 -1.27043,-0.47719 -1.19094,0.10791 -1.3343,0.0728 -1.58135,-0.3889 -0.19535,-0.36522 -0.20599,-0.65208 -0.0372,-1.02243 0.19402,-0.42581 0.61593,-0.59932 2.44223,-1.00422 1.21424,-0.26921 2.33025,-0.52633 2.48,-0.57141 0.61109,-0.18392 -1.14275,-4.54999 -2.81968,-7.01936 -1.52789,-2.24996 -4.4117,-4.78041 -6.82039,-5.98466 -3.1325,-1.56617 -4.39616,-1.83871 -8.52228,-1.83794 -2.74889,5.1e-4 -3.77294,0.0885 -4.83266,0.41484 -6.23183,1.91959 -11.18542,6.998 -12.98427,13.31148 -0.73436,2.57746 -0.73141,7.47957 0.005,10.21491 0.91311,3.38631 2.57741,6.14937 5.23995,8.69924 1.96958,1.88623 2.5372,2.29727 4.59507,3.32754 1.67557,0.83885 3.5647,1.45039 5.3826,1.74239 1.58983,0.25542 5.55538,0.0486 7.30665,-0.38103 z m -6.73882,-18.75156 c 0,-0.24027 0.10126,-0.49936 0.22512,-0.57585 0.43897,-0.27129 0.21396,-0.51454 -0.61883,-0.66909 -1.52553,-0.28309 -2.07189,-1.22544 -1.17903,-2.03348 0.43815,-0.3965 0.52905,-0.39315 2.86916,0.10552 3.10747,0.6621 3.38769,0.77753 3.56072,1.46692 0.18711,0.74524 -0.23682,1.24271 -1.05906,1.24271 -0.4975,0 -0.64753,0.10419 -0.64753,0.45009 0,0.40718 -0.14991,0.45005 -1.57524,0.45005 -1.40922,0 -1.57521,-0.046 -1.57521,-0.43679 z m 18.17273,7.1315 c -0.0508,-0.15469 -0.4694,-0.31302 -0.93019,-0.3518 -0.64268,-0.0542 -0.8986,-0.20386 -1.09887,-0.64349 -0.22193,-0.4874 -0.19695,-0.61987 0.16824,-0.88693 0.23602,-0.17276 0.61187,-0.25596 0.83497,-0.18526 0.66813,0.2121 0.46422,-0.33071 -0.45574,-1.21318 -0.98461,-0.94444 -2.47697,-1.52516 -4.42691,-1.72266 -1.17204,-0.11881 -1.83018,-0.0484 -4.27563,0.4568 -0.96321,0.19908 -3.1224,1.1431 -3.2091,1.40319 -0.0603,0.18074 0.17728,0.27411 0.6966,0.27411 1.12566,0 1.49986,0.19934 1.49986,0.79842 0,0.73974 -0.33548,0.87096 -2.07407,0.81121 -1.5394,-0.0529 -1.9392,0.17887 -1.09118,0.63278 0.23947,0.12811 1.78369,0.24134 3.43175,0.25144 1.64806,0.0106 4.46481,0.14698 6.25945,0.30403 4.55032,0.39825 4.77932,0.40176 4.67077,0.0712 z"
       id="path933"
       inkscape:connector-curvature="0" />
  </g>
</svg>
